Motion_pl07
version=1
nRows=6
nColumns=43
inDegrees=yes
endheader
time	pelvis_tilt	pelvis_list	pelvis_rotation	pelvis_tx	pelvis_ty	pelvis_tz	hip_flexion_r	hip_adduction_r	hip_rotation_r	knee_angle_r	ankle_angle_r	subtalar_angle_r	mtp_angle_r	hip_flexion_l	hip_adduction_l	hip_rotation_l	knee_angle_l	ankle_angle_l	subtalar_angle_l	mtp_angle_l	lumbar_extension	lumbar_bending	lumbar_rotation	neck_flexion	neck_lateral_bending	neck_rotation	arm_flex_r	arm_add_r	arm_rot_r	elbow_flex_r	pro_sup_r	wrist_flex_r	wrist_dev_r	hand_finger_flex_r	arm_flex_l	arm_add_l	arm_rot_l	elbow_flex_l	pro_sup_l	wrist_flex_l	wrist_dev_l	hand_finger_flex_l
      0.41750000	      3.13110883	    -19.77774469	     95.44643414	      0.00076567	      1.71039315	      1.28509855	     84.43342774	    -12.24449650	     -3.42670521	   -112.26693806	      1.87072939	     -0.79712992	      1.24519677	     82.49475172	     -2.35795834	      6.58035864	   -112.66619144	      8.66015855	     -3.31787109	    -19.21943481	    -29.24192629	      4.64433624	     -2.80773538	     16.98370076	      2.11858092	      5.42761406	     96.08997765	    -24.89469717	     35.78102958	     53.95935369	     80.62462319	    -26.54245630	     -0.17578735	     54.65341317	    113.16544419	    -35.20895969	     74.13110435	     58.65047776	    107.42461090	    -35.37560616	     10.16186945	     79.65764941
      0.42000000	      3.10780614	    -19.61814730	     95.44616480	      0.00058334	      1.70820592	      1.28014615	     84.63840188	    -12.22291108	     -3.54620108	   -111.61631802	      1.29226811	     -0.66241022	      1.62495213	     82.60390007	     -2.19387865	      6.51467664	   -112.05566906	      8.27610877	     -2.99994562	    -19.29366973	    -29.33878810	      4.66637244	     -2.71308912	     16.72451812	      2.07522123	      5.24566635	     95.16861797	    -25.18847742	     35.46468971	     53.61658649	     80.74436401	    -26.22762634	      0.32877186	     54.64699500	    112.43724148	    -35.48803868	     74.34571160	     58.14662043	    108.01632882	    -35.43311715	     10.09517004	     80.01157659
      0.42250000	      3.06851646	    -19.40499906	     95.41042793	      0.00025255	      1.70608036	      1.27517909	     84.73766471	    -12.16675763	     -3.66625358	   -110.97294643	      1.26630083	     -0.63478907	      1.65286538	     82.55792381	     -2.04025039	      6.39101944	   -111.39042919	      8.18207188	     -2.88832114	    -19.30208727	    -29.56070682	      4.70541692	     -2.62605159	     16.87153783	      2.08420400	      5.23428978	     94.44552790	    -25.56696285	     35.61081174	     53.26282416	     80.77021211	    -26.18664856	      0.44838611	     54.65455665	    111.82932331	    -35.96504438	     74.63886600	     57.92070970	    108.06029051	    -35.37150775	     10.12773230	     80.06404856
      0.42500000	      3.05948573	    -19.37558878	     95.37345410	      0.00015911	      1.70376752	      1.27017697	     84.99743795	    -12.10862103	     -3.82279954	   -110.20696509	      0.33315225	     -0.98020140	      3.76440008	     82.75633474	     -1.93077037	      6.27955420	   -110.71886360	      7.70346818	     -2.77951629	    -19.40379203	    -29.49769414	      4.61099648	     -2.20139333	     16.40441650	      2.24128081	      4.71757967	     93.07113035	    -26.37294752	     34.44943202	     53.62035349	     82.29623071	    -24.91543026	      2.15903796	     54.05226641	    110.51600834	    -35.59806550	     73.76983155	     56.90066482	    110.21843306	    -35.85346019	      9.73203841	     81.84955132
      0.42750000	      3.00941266	    -19.06694603	     95.33573165	     -0.00005211	      1.70169265	      1.26513824	     84.95096025	    -12.08442229	     -3.93086536	   -109.51912278	      0.04381611	     -0.81244099	      3.89050839	     82.65617772	     -1.82475765	      6.17886568	   -110.07091573	      7.24072535	     -2.45237709	    -19.43428835	    -29.82216895	      4.63407149	     -2.16206458	     16.45464906	      2.19241751	      4.72485486	     92.31174299	    -26.72014315	     34.57999047	     53.28549979	     82.36949776	    -24.87133264	      2.26817813	     53.97422034	    109.94272791	    -36.13115086	     74.05900482	     56.62558688	    110.21413869	    -35.75596162	      9.78584609	     81.94372413
      0.43000000	      2.97452687	    -18.84131093	     95.30730540	     -0.00020979	      1.69930091	      1.26000439	     84.97793672	    -12.02396672	     -4.03236003	   -108.87025658	     -0.02582335	     -0.76489787	      3.90534616	     82.57603549	     -1.69497925	      6.08965563	   -109.42093378	      7.11479367	     -2.33503012	    -19.44079672	    -30.01406990	      4.64299166	     -2.09994670	     16.57561572	      2.18375825	      4.71443339	     91.51252056	    -27.12346210	     34.76166292	     52.89909076	     82.39089413	    -24.84119723	      2.38533045	     53.97384279	    109.29823324	    -36.65508888	     74.37571972	     56.41321394	    110.22889208	    -35.67928163	      9.82540603	     81.98527768
